# File created by Blade
# Date/Time:  Tue Jan 27 17:01:45 2015
#---------------------------------------------------------
:version 1.10
:name HOM
:units
  mass 1.0
  length 1.000000
  angle deg
:documentation
     Acclaim Skeleton File
:root
   axis xyz
   order TX TY TZ RX RY RZ
   position 0.000000 0.000000 0.000000
   orientation 0 0 0
:bonedata
   begin
      id 1
      name Spine_dum
      direction 0.000000 1.000000 0.000000
      length 7.539951
      axis 0.0 0.0 0.0 xyz
   end
   begin
      id 2
      name LeftUpLeg_dum
      direction 1.000000 0.000000 0.000000
      length 3.345476
      axis 0.0 0.0 0.0 xyz
   end
   begin
      id 3
      name RightUpLeg_dum
      direction -1.000000 0.000000 0.000000
      length 3.345476
      axis 0.0 0.0 0.0 xyz
   end
   begin
      id 4
      name Spine
      direction 0.000000 1.000000 0.000000
      length 0.000000
      axis 0.0 0.0 0.0 xyz
      dof rx ry rz
   end
   begin
      id 5
      name Spine_dum1
      direction 0.000000 1.000000 0.000000
      length 15.093809
      axis 0.0 0.0 0.0 xyz
   end
   begin
      id 6
      name Spine_dum2
      direction 0.000000 1.000000 0.000000
      length 9.738928
      axis 0.0 0.0 0.0 xyz
   end
   begin
      id 7
      name Spine_dum3
      direction 0.000000 1.000000 0.000000
      length 9.738928
      axis 0.0 0.0 0.0 xyz
   end
   begin
      id 8
      name Head
      direction 0.000000 1.000000 0.000000
      length 4.527550
      axis 0.0 0.0 0.0 xyz
      dof rx ry rz
   end
   begin
      id 9
      name LeftShoulder
      direction 1.000000 0.000000 0.000000
      length 7.084015
      axis 0.0 0.0 -90.0 xyz
      dof rx ry rz
   end
   begin
      id 10
      name LeftArm
      direction 1.000000 0.000000 0.000000
      length 10.259319
      axis 0.0 0.0 -90.0 xyz
      dof rx ry rz
   end
   begin
      id 11
      name LeftForeArm
      direction 1.000000 0.000000 0.000000
      length 9.896984
      axis 0.0 0.0 -90.0 xyz
      dof ry rz rx
   end
   begin
      id 12
      name LeftHand
      direction 0.000000 0.000000 0.000000
      length 0.000000
      axis 0.0 0.0 -90.0 xyz
      dof rx ry rz
   end
   begin
      id 13
      name LeftHand_dum1
      direction 0.000000 0.000000 0.000000
      length 0.000000
      axis 0.0 0.0 -90.0 xyz
   end
   begin
      id 14
      name LeftHand_dum2
      direction 1.000000 0.000000 0.000000
      length 3.937000
      axis 0.0 0.0 -90.0 xyz
   end
   begin
      id 15
      name LeftHandThumb1
      direction 0.000000 0.000000 1.000000
      length 3.937000
      axis 0.0 0.0 -90.0 xyz
      dof rx rz ry
   end
   begin
      id 16
      name RightShoulder
      direction -1.000000 0.000000 0.000000
      length 7.084015
      axis 0.0 0.0 90.0 xyz
      dof rx ry rz
   end
   begin
      id 17
      name RightArm
      direction -1.000000 0.000000 0.000000
      length 10.259319
      axis 0.0 0.0 90.0 xyz
      dof rx ry rz
   end
   begin
      id 18
      name RightForeArm
      direction -1.000000 0.000000 0.000000
      length 9.896984
      axis 0.0 0.0 90.0 xyz
      dof ry rz rx
   end
   begin
      id 19
      name RightHand
      direction 0.000000 0.000000 0.000000
      length 0.000000
      axis 0.0 0.0 90.0 xyz
      dof rx ry rz
   end
   begin
      id 20
      name RightHand_dum1
      direction 0.000000 0.000000 0.000000
      length 0.000000
      axis 0.0 0.0 90.0 xyz
   end
   begin
      id 21
      name RightHand_dum2
      direction -1.000000 0.000000 0.000000
      length 3.937000
      axis 0.0 0.0 90.0 xyz
   end
   begin
      id 22
      name RightHandThumb1
      direction 0.000000 0.000000 1.000000
      length 3.937000
      axis 0.0 0.0 90.0 xyz
      dof rx rz ry
   end
   begin
      id 23
      name LeftUpLeg
      direction 0.000000 -1.000000 0.000000
      length 19.114733
      axis 0.0 0.0 0.0 xyz
      dof rx ry rz
   end
   begin
      id 24
      name LeftLeg
      direction 0.000000 -1.000000 0.000000
      length 16.045604
      axis 0.0 0.0 0.0 xyz
      dof rx ry rz
   end
   begin
      id 25
      name LeftFoot
      direction 0.000000 -0.258819 0.965926
      length 5.543155
      axis 15.0 0.0 0.0 xyz
      dof rx ry rz
   end
   begin
      id 26
      name LeftToeBase
      direction 0.000000 0.000000 1.000000
      length 2.952750
      axis 0.0 0.0 0.0 xyz
      dof rx ry rz
   end
   begin
      id 27
      name RightUpLeg
      direction 0.000000 -1.000000 0.000000
      length 19.114733
      axis 0.0 0.0 0.0 xyz
      dof rx ry rz
   end
   begin
      id 28
      name RightLeg
      direction 0.000000 -1.000000 0.000000
      length 16.045604
      axis 0.0 0.0 0.0 xyz
      dof rx ry rz
   end
   begin
      id 29
      name RightFoot
      direction 0.000000 -0.258819 0.965926
      length 5.543155
      axis 15.0 0.0 0.0 xyz
      dof rx ry rz
   end
   begin
      id 30
      name RightToeBase
      direction 0.000000 0.000000 1.000000
      length 2.952750
      axis 0.0 0.0 0.0 xyz
      dof rx ry rz
   end
:hierarchy
   begin
      root Spine_dum LeftUpLeg_dum RightUpLeg_dum
      Spine_dum Spine
      LeftUpLeg_dum LeftUpLeg
      RightUpLeg_dum RightUpLeg
      Spine Spine_dum1 Spine_dum2 Spine_dum3
      Spine_dum1 Head
      Spine_dum2 LeftShoulder
      Spine_dum3 RightShoulder
      LeftShoulder LeftArm
      LeftArm LeftForeArm
      LeftForeArm LeftHand
      LeftHand LeftHand_dum1 LeftHand_dum2
      LeftHand_dum1 LeftHandThumb1
      RightShoulder RightArm
      RightArm RightForeArm
      RightForeArm RightHand
      RightHand RightHand_dum1 RightHand_dum2
      RightHand_dum1 RightHandThumb1
      LeftUpLeg LeftLeg
      LeftLeg LeftFoot
      LeftFoot LeftToeBase
      RightUpLeg RightLeg
      RightLeg RightFoot
      RightFoot RightToeBase
   end

# File created by Blade
# Date/Time:  Tue Jan 27 17:01:38 2015
# Frame Rate: 120.000 fps
#------------------------------------------------------
:FULLY-SPECIFIED
:DEGREES
2174
root -1.755454 36.810758 5.699015 7.706531 12.503055 -0.016603
Spine -7.134835 11.860801 -5.937044
Head 3.260353 12.507492 -0.505616
LeftShoulder -4.674867 -8.223926 -4.417631
LeftArm -6.533969 -43.794223 -58.442968
LeftForeArm -67.448998 -0.000000 99.032816
LeftHand 2.451026 -0.000000 -4.849251
LeftHandThumb1 -26.253704 0.000000 33.147579
RightShoulder -0.471881 -22.407478 -3.213659
RightArm 26.407452 -33.457169 53.390403
RightForeArm -147.500434 -0.000000 36.622473
RightHand -1.738590 -0.000000 -2.083933
RightHandThumb1 -24.326973 -0.000000 -32.862282
LeftUpLeg -6.875920 6.484510 6.250035
LeftLeg 7.443774 -0.000000 -0.000000
LeftFoot -13.741054 -1.306842 -20.927953
LeftToeBase 14.961710 -0.000000 -0.000000
RightUpLeg -5.706973 -15.513443 0.909062
RightLeg 11.569512 -0.000000 -0.000000
RightFoot -19.969017 -8.871359 16.001476
RightToeBase 10.894868 -0.000000 -0.000000
2175
root -1.750561 36.811518 5.696624 7.700840 12.427009 -0.018384
Spine -7.110487 11.851284 -5.918069
Head 3.248297 12.493110 -0.490151
LeftShoulder -4.683911 -8.250400 -4.387641
LeftArm -6.547765 -43.823759 -58.442660
LeftForeArm -67.473530 -0.000000 99.060730
LeftHand 2.360122 -0.000000 -4.810889
LeftHandThumb1 -26.253704 0.000000 33.147579
RightShoulder -0.497258 -22.417197 -3.171335
RightArm 26.375933 -33.473784 53.378646
RightForeArm -147.504076 0.000000 36.570155
RightHand -1.704267 -0.000000 -2.065955
RightHandThumb1 -24.326973 -0.000000 -32.862282
LeftUpLeg -6.859633 6.528401 6.237369
LeftLeg 7.448841 -0.000000 -0.000000
LeftFoot -13.757731 -1.284938 -20.927973
LeftToeBase 14.985404 -0.000000 -0.000000
RightUpLeg -5.720099 -15.502413 0.896044
RightLeg 11.588450 -0.000000 -0.000000
RightFoot -19.947959 -8.831659 15.959543
RightToeBase 10.891273 -0.000000 -0.000000
2176
root -1.745549 36.811703 5.692063 7.703954 12.306229 -0.025799
Spine -7.097644 11.866531 -5.887944
Head 3.286327 12.489776 -0.524648
LeftShoulder -4.694721 -8.285791 -4.379439
LeftArm -6.575846 -43.850524 -58.409352
LeftForeArm -67.467761 0.000000 99.086086
LeftHand 2.363712 -0.000000 -4.744544
LeftHandThumb1 -26.253704 0.000000 33.147579
RightShoulder -0.515019 -22.486762 -3.147181
RightArm 26.414829 -33.436963 53.345965
RightForeArm -147.477293 -0.000000 36.499425
RightHand -1.679660 -0.000000 -2.056061
RightHandThumb1 -24.326973 -0.000000 -32.862282
LeftUpLeg -6.845367 6.610917 6.223814
LeftLeg 7.453106 -0.000000 -0.000000
LeftFoot -13.783188 -1.259052 -20.942503
LeftToeBase 14.968706 -0.000000 -0.000000
RightUpLeg -5.737703 -15.397886 0.885923
RightLeg 11.579354 -0.000000 -0.000000
RightFoot -19.934065 -8.840296 15.953827
RightToeBase 10.903516 -0.000000 -0.000000
2177
root -1.740068 36.812223 5.688351 7.712255 12.202407 -0.029671
Spine -7.098013 11.882549 -5.866854
Head 3.308267 12.464252 -0.520821
LeftShoulder -4.708703 -8.305837 -4.365975
LeftArm -6.568262 -43.840788 -58.411098
LeftForeArm -67.509443 -0.000000 99.109302
LeftHand 2.318851 -0.000000 -4.673225
LeftHandThumb1 -26.253704 0.000000 33.147579
RightShoulder -0.530224 -22.514969 -3.126110
RightArm 26.397561 -33.459097 53.339738
RightForeArm -147.375737 -0.000000 36.408567
RightHand -1.709464 -0.000000 -2.120065
RightHandThumb1 -24.326973 -0.000000 -32.862282
LeftUpLeg -6.836818 6.695563 6.205749
LeftLeg 7.452439 -0.000000 -0.000000
LeftFoot -13.800896 -1.244596 -20.938455
LeftToeBase 15.015181 -0.000000 -0.000000
RightUpLeg -5.769783 -15.326463 0.874203
RightLeg 11.597499 -0.000000 -0.000000
RightFoot -19.923380 -8.817133 15.963537
RightToeBase 10.905612 -0.000000 -0.000000
2178
root -1.733924 36.812669 5.684177 7.727351 12.090368 -0.034797
Spine -7.110937 11.915404 -5.846007
Head 3.349195 12.443304 -0.518415
LeftShoulder -4.718816 -8.288797 -4.360479
LeftArm -6.519599 -43.845726 -58.438440
LeftForeArm -67.504174 -0.000000 99.130920
LeftHand 2.219484 -0.000000 -4.611176
LeftHandThumb1 -26.253704 0.000000 33.147579
RightShoulder -0.540642 -22.539065 -3.101216
RightArm 26.328912 -33.446966 53.362509
RightForeArm -147.428944 -0.000000 36.349610
RightHand -1.666760 -0.000000 -2.115152
RightHandThumb1 -24.326973 -0.000000 -32.862282
LeftUpLeg -6.831631 6.778512 6.188642
LeftLeg 7.446110 -0.000000 -0.000000
LeftFoot -13.811845 -1.229599 -20.942235
LeftToeBase 15.011901 -0.000000 -0.000000
RightUpLeg -5.808842 -15.246239 0.863473
RightLeg 11.613742 -0.000000 -0.000000
RightFoot -19.908625 -8.803878 15.956100
RightToeBase 10.887570 -0.000000 -0.000000
2179
root -1.726266 36.814312 5.677632 7.748396 12.004122 -0.027407
Spine -7.123864 11.923069 -5.831128
Head 3.397013 12.428231 -0.528235
LeftShoulder -4.712589 -8.258982 -4.366282
LeftArm -6.476507 -43.868751 -58.463856
LeftForeArm -67.537486 -0.000000 99.158408
LeftHand 2.169377 -0.000000 -4.577340
LeftHandThumb1 -26.253704 0.000000 33.147579
RightShoulder -0.542073 -22.563437 -3.077311
RightArm 26.267432 -33.458013 53.365364
RightForeArm -147.432511 0.000000 36.270669
RightHand -1.662799 -0.000000 -2.095025
RightHandThumb1 -24.326973 -0.000000 -32.862282
LeftUpLeg -6.840143 6.824613 6.156106
LeftLeg 7.441885 -0.000000 -0.000000
LeftFoot -13.821595 -1.179982 -20.921001
LeftToeBase 14.990430 -0.000000 -0.000000
RightUpLeg -5.852979 -15.184154 0.841920
RightLeg 11.627508 -0.000000 -0.000000
RightFoot -19.887559 -8.795818 15.949523
RightToeBase 10.902463 -0.000000 -0.000000
2180
root -1.721408 36.815539 5.672908 7.764901 11.892285 -0.027995
Spine -7.135677 11.950718 -5.821568
Head 3.442909 12.413752 -0.543456
LeftShoulder -4.720860 -8.274294 -4.359540
LeftArm -6.464705 -43.842748 -58.455741
LeftForeArm -67.538877 -0.000000 99.172250
LeftHand 2.172721 -0.000000 -4.533617
LeftHandThumb1 -26.253704 0.000000 33.147579
RightShoulder -0.549980 -22.589433 -3.048223
RightArm 26.244622 -33.475294 53.351347
RightForeArm -147.446796 -0.000000 36.166116
RightHand -1.640931 -0.000000 -2.075993
RightHandThumb1 -24.326973 -0.000000 -32.862282
LeftUpLeg -6.839805 6.933292 6.132762
LeftLeg 7.442423 -0.000000 -0.000000
LeftFoot -13.820445 -1.183001 -20.932047
LeftToeBase 14.982895 -0.000000 -0.000000
RightUpLeg -5.896197 -15.090826 0.829378
RightLeg 11.648752 -0.000000 -0.000000
RightFoot -19.868869 -8.801755 15.923950
RightToeBase 10.888169 -0.000000 -0.000000
2181
root -1.716630 36.816032 5.669382 7.774347 11.825085 -0.028019
Spine -7.138163 11.951882 -5.804177
Head 3.490815 12.391963 -0.556082
LeftShoulder -4.723720 -8.276946 -4.356780
LeftArm -6.436372 -43.815683 -58.467882
LeftForeArm -67.508443 -0.000000 99.187535
LeftHand 2.120269 -0.000000 -4.540521
LeftHandThumb1 -26.253704 0.000000 33.147579
RightShoulder -0.564782 -22.600083 -3.030093
RightArm 26.186648 -33.499908 53.380090
RightForeArm -147.492830 -0.000000 36.039710
RightHand -1.621037 -0.000000 -2.158068
RightHandThumb1 -24.326973 -0.000000 -32.862282
LeftUpLeg -6.840054 6.995139 6.116308
LeftLeg 7.444109 -0.000000 -0.000000
LeftFoot -13.827749 -1.181407 -20.922484
LeftToeBase 15.010927 -0.000000 -0.000000
RightUpLeg -5.919081 -15.038033 0.820137
RightLeg 11.649305 -0.000000 -0.000000
RightFoot -19.858129 -8.763623 15.910968
RightToeBase 10.946092 -0.000000 -0.000000
2182
root -1.711362 36.816991 5.666161 7.783126 11.740617 -0.030187
Spine -7.141414 11.962235 -5.789627
Head 3.546011 12.382515 -0.569794
LeftShoulder -4.735483 -8.293602 -4.355973
LeftArm -6.419167 -43.787525 -58.473640
LeftForeArm -67.512596 -0.000000 99.215503
LeftHand 2.083068 -0.000000 -4.479378
LeftHandThumb1 -26.253704 0.000000 33.147579
RightShoulder -0.571586 -22.626814 -2.998642
RightArm 26.128396 -33.492679 53.396459
RightForeArm -147.513270 -0.000000 35.941210
RightHand -1.582745 -0.000000 -2.134777
RightHandThumb1 -24.326973 -0.000000 -32.862282
LeftUpLeg -6.833008 7.094449 6.096618
LeftLeg 7.438279 -0.000000 -0.000000
LeftFoot -13.826497 -1.191004 -20.915213
LeftToeBase 14.999469 -0.000000 -0.000000
RightUpLeg -5.946885 -14.972260 0.808914
RightLeg 11.666363 -0.000000 -0.000000
RightFoot -19.851364 -8.809645 15.924142
RightToeBase 10.869668 -0.000000 -0.000000
2183
root -1.703779 36.817552 5.665095 7.787631 11.722781 -0.024104
Spine -7.140349 11.927376 -5.760520
Head 3.603867 12.336591 -0.582791
LeftShoulder -4.725180 -8.296941 -4.372586
LeftArm -6.412708 -43.764311 -58.463290
LeftForeArm -67.484593 0.000000 99.228599
LeftHand 2.063376 0.000000 -4.515251
LeftHandThumb1 -26.253704 0.000000 33.147579
RightShoulder -0.604769 -22.653591 -2.983358
RightArm 26.078888 -33.511524 53.415982
RightForeArm -147.522275 -0.000000 35.814132
RightHand -1.503605 -0.000000 -2.220897
RightHandThumb1 -24.326973 -0.000000 -32.862282
LeftUpLeg -6.830334 7.102773 6.077352
LeftLeg 7.433533 -0.000000 -0.000000
LeftFoot -13.828015 -1.188883 -20.927365
LeftToeBase 15.014758 -0.000000 -0.000000
RightUpLeg -5.945381 -14.978919 0.790847
RightLeg 11.651185 -0.000000 -0.000000
RightFoot -19.832462 -8.786038 15.924450
RightToeBase 10.898595 -0.000000 -0.000000
2184
root -1.689808 36.817751 5.670642 7.748377 11.911147 0.010144
Spine -7.069139 11.671615 -5.688478
Head 3.659761 12.317533 -0.644588
LeftShoulder -4.741044 -8.327159 -4.431152
LeftArm -6.425279 -43.748244 -58.421600
LeftForeArm -67.422814 -0.000000 99.252969
LeftHand 2.032909 -0.000000 -4.521995
LeftHandThumb1 -26.253704 0.000000 33.147579
RightShoulder -0.613127 -22.682537 -2.996039
RightArm 26.020165 -33.534675 53.439612
RightForeArm -147.628214 0.000000 35.682658
RightHand -1.526248 -0.000000 -2.135609
RightHandThumb1 -24.326973 -0.000000 -32.862282
LeftUpLeg -6.808514 6.869343 6.053059
LeftLeg 7.432871 -0.000000 -0.000000
LeftFoot -13.838154 -1.142675 -20.915840
LeftToeBase 15.002611 -0.000000 -0.000000
RightUpLeg -5.841629 -15.294490 0.745660
RightLeg 11.588645 -0.000000 -0.000000
RightFoot -19.790133 -8.689293 15.879632
RightToeBase 10.878585 -0.000000 -0.000000
2185
root -1.680730 36.817882 5.672019 7.709697 11.932504 0.021008
Spine -7.010284 11.587328 -5.643373
Head 3.702064 12.309770 -0.659456
LeftShoulder -4.761326 -8.328633 -4.444070
LeftArm -6.378287 -43.743129 -58.464535
LeftForeArm -67.385378 -0.000000 99.269196
LeftHand 2.006015 0.000000 -4.545138
LeftHandThumb1 -26.253704 0.000000 33.147579
RightShoulder -0.617409 -22.703232 -3.002409
RightArm 25.987470 -33.570190 53.445338
RightForeArm -147.621758 -0.000000 35.525469
RightHand -1.530662 0.000000 -2.123947
RightHandThumb1 -24.326973 -0.000000 -32.862282
LeftUpLeg -6.762279 6.834882 6.037029
LeftLeg 7.425010 -0.000000 -0.000000
LeftFoot -13.845469 -1.134281 -20.904215
LeftToeBase 15.022184 -0.000000 -0.000000
RightUpLeg -5.783264 -15.367626 0.712244
RightLeg 11.568836 -0.000000 -0.000000
RightFoot -19.783289 -8.648003 15.879039
RightToeBase 10.892702 -0.000000 -0.000000
